<svg width="75" height="67" viewBox="0 0 75 67" fill="none" xmlns="http://www.w3.org/2000/svg">
<path d="M23.4969 12.3758H51.5047C52.338 12.3758 53.0207 11.7682 53.0207 11.0221V0H21.978V11.0221C21.978 11.7682 22.6589 12.3758 23.4969 12.3758Z" fill="#2C3F40"/>
<path d="M73.8283 16.8532L58.0225 2.67398V11.022C58.0225 14.2323 55.0985 16.8444 51.5048 16.8444H23.497C19.9026 16.8444 16.9794 14.2323 16.9794 11.022V0H6.88218C3.0811 0 0 2.75299 0 6.14629V60.8537C0 64.2467 3.0811 67 6.88218 67H68.1192C71.918 67 74.9994 64.2473 74.9994 60.8537V19.3855C74.9994 18.4345 74.5778 17.5245 73.8283 16.8532ZM63.3323 52.9016C63.3323 54.8815 61.5354 56.4891 59.3143 56.4891H15.6826C13.4637 56.4891 11.6669 54.8812 11.6669 52.9016V34.1968C11.6669 32.2174 13.4637 30.61 15.6826 30.61H59.3143C61.5354 30.61 63.3323 32.2177 63.3323 34.1968V52.9016Z" fill="#2C3F40"/>
<path d="M54.7392 36.3679H20.2602C18.8771 36.3679 17.7583 37.3656 17.7583 38.601C17.7583 39.8365 18.8771 40.8342 20.2602 40.8342H54.7393C56.1194 40.8342 57.2386 39.8365 57.2386 38.601C57.2386 37.3656 56.1196 36.3679 54.7392 36.3679Z" fill="#2C3F40"/>
<path d="M49.7394 45.3021H25.2595C23.8785 45.3021 22.7598 46.2998 22.7598 47.5352C22.7598 48.7683 23.8785 49.7684 25.2595 49.7684H49.7393C51.1203 49.7684 52.2392 48.7683 52.2392 47.5352C52.2393 46.2998 51.1204 45.3021 49.7394 45.3021Z" fill="#2C3F40"/>
</svg>
